<svg xmlns="http://www.w3.org/2000/svg" width="128" height="128" viewBox="0 0 128 128" role="img" aria-label="Wise Guides">
  <defs>
    <linearGradient id="wg-bg" x1="0" y1="0" x2="1" y2="1"><stop offset="0" stop-color="#7B5CFF"/><stop offset=".55" stop-color="#4B2FD6"/><stop offset="1" stop-color="#23146E"/></linearGradient>
    <radialGradient id="wg-shine" cx=".25" cy=".15" r=".8"><stop offset="0" stop-color="#fff" stop-opacity=".28"/><stop offset=".6" stop-color="#fff" stop-opacity="0"/></radialGradient>
    <linearGradient id="wg-gold" x1="0" y1="0" x2="0" y2="1"><stop offset="0" stop-color="#FFE08A"/><stop offset="1" stop-color="#FFB020"/></linearGradient>
  </defs>
  <rect x="4" y="4" width="120" height="120" rx="32" fill="url(#wg-bg)"/>
  <rect x="4" y="4" width="120" height="120" rx="32" fill="url(#wg-shine)"/>
  <path d="M24 46 L42 94 L64 58 L86 94 L98.6 53.5" fill="none" stroke="#fff" stroke-width="15" stroke-linecap="round" stroke-linejoin="round"/>
  <path d="M106.5 29 L112.6 55.8 L86.6 47.6 Z" fill="#fff" stroke="#fff" stroke-width="5" stroke-linejoin="round"/>
  <path d="M64 18 C65.5 27 67 28.5 76 30 C67 31.5 65.5 33 64 42 C62.5 33 61 31.5 52 30 C61 28.5 62.5 27 64 18 Z" fill="url(#wg-gold)"/>
</svg>
